<?xml version="1.0" standalone="no"?>
<!DOCTYPE svg PUBLIC "-//W3C//DTD SVG 20010904//EN"
 "http://www.w3.org/TR/2001/REC-SVG-20010904/DTD/svg10.dtd">
<svg version="1.0" xmlns="http://www.w3.org/2000/svg"
 width="91.000000pt" height="49.000000pt" viewBox="0 0 91.000000 49.000000"
 preserveAspectRatio="xMidYMid meet">

<g transform="translate(0.000000,49.000000) scale(0.100000,-0.100000)"
fill="#000000" stroke="none">
<path d="M72 479 c-19 -6 -41 -23 -53 -42 -18 -29 -19 -46 -17 -169 l3 -137
55 -56 c30 -30 69 -60 88 -66 20 -7 77 -10 139 -7 104 4 105 4 135 37 l29 32
40 -36 c37 -33 45 -36 92 -33 l52 3 3 72 3 73 34 0 c33 0 35 -2 35 -33 0 -26
10 -42 43 -76 41 -40 47 -42 93 -39 l49 3 -2 95 c-1 52 -1 102 -2 110 0 8 2
56 5 106 l5 92 -39 41 c-33 35 -45 41 -80 41 -69 0 -72 -4 -72 -81 l0 -69 -35
0 c-33 0 -35 2 -35 32 0 49 -71 118 -121 118 -65 0 -69 -5 -69 -77 l0 -66 -40
50 c-63 80 -79 87 -200 90 -58 1 -120 -2 -138 -8z m276 -55 c17 -12 22 -25 22
-60 0 -41 -2 -44 -26 -44 -16 0 -35 11 -51 30 -25 30 -28 31 -102 28 l-76 -3
-3 -94 c-4 -126 2 -133 112 -129 80 3 81 3 84 31 3 23 8 27 33 27 26 0 29 -3
29 -31 0 -20 -10 -40 -29 -60 -29 -29 -30 -29 -150 -29 -109 0 -121 2 -131 19
-5 11 -10 75 -10 143 0 177 9 186 175 187 76 1 106 -3 123 -15z m212 -43 c0
-38 5 -63 14 -70 9 -8 45 -11 98 -9 l83 3 3 68 c3 67 3 67 32 67 29 0 30 -1
30 -51 0 -49 -13 -87 -33 -101 -6 -3 -1 -17 12 -33 17 -22 21 -41 21 -96 l0
-69 -30 0 c-29 0 -30 2 -30 44 0 24 -3 52 -6 61 -11 28 -60 45 -129 45 l-65 0
0 -75 0 -75 -30 0 -30 0 0 175 0 175 30 0 c30 0 30 0 30 -59z m-256 -110 c17
-19 17 -20 -11 -23 -22 -2 -29 -9 -31 -30 -3 -25 -8 -28 -38 -28 l-34 0 0 50
0 50 48 0 c36 0 54 -5 66 -19z m146 -63 l-1 -33 -20 25 c-21 25 -19 29 19 39
1 1 2 -14 2 -31z"/>
</g>
</svg>
