<?xml version="1.0" standalone="no"?>
<!DOCTYPE svg PUBLIC "-//W3C//DTD SVG 20010904//EN"
 "http://www.w3.org/TR/2001/REC-SVG-20010904/DTD/svg10.dtd">
<svg version="1.0" xmlns="http://www.w3.org/2000/svg"
 width="389.000000pt" height="44.000000pt" viewBox="0 0 389.000000 44.000000"
 preserveAspectRatio="xMidYMid meet">

<g transform="translate(0.000000,44.000000) scale(0.100000,-0.100000)"
fill="#000000" stroke="none">
<path d="M288 433 c7 -3 16 -2 19 1 4 3 -2 6 -13 5 -11 0 -14 -3 -6 -6z"/>
<path d="M958 239 l3 -199 -46 0 c-43 0 -44 -1 -33 -20 10 -16 24 -20 65 -20
l53 0 0 198 c0 193 -1 199 -22 220 l-23 21 3 -200z"/>
<path d="M1043 433 c15 -2 39 -2 55 0 15 2 2 4 -28 4 -30 0 -43 -2 -27 -4z"/>
<path d="M1328 433 l52 -4 0 -195 0 -194 -47 0 c-45 0 -46 0 -28 -20 13 -15
31 -20 67 -20 l48 0 0 198 c-1 178 -2 199 -19 220 -16 18 -28 22 -73 20 l-53
-2 53 -3z"/>
<path d="M1704 426 c-3 -7 -4 -38 -2 -67 l3 -54 5 68 c5 67 4 79 -6 53z"/>
<path d="M1808 370 c3 -49 -1 -79 -12 -101 -14 -28 -14 -34 -1 -52 10 -15 15
-47 15 -99 l0 -78 -50 0 -49 0 -3 73 -3 72 -77 3 -77 3 -3 -73 -3 -73 -52 0
-52 0 21 -23 c17 -17 33 -22 69 -22 l48 0 3 73 3 72 58 3 57 3 0 -54 c0 -72
25 -97 98 -97 l52 0 0 73 c0 43 -6 83 -14 100 -13 23 -13 31 0 55 8 16 14 56
14 98 0 60 -3 74 -22 92 l-23 21 3 -69z"/>
<path d="M2598 384 l-3 -49 -112 -3 c-105 -2 -113 -4 -113 -22 0 -19 7 -20
115 -20 l115 0 0 -50 0 -50 -115 0 c-108 0 -115 -1 -115 -20 0 -19 7 -20 115
-20 l115 0 0 -55 0 -56 -169 3 -170 3 21 -23 c21 -21 28 -22 190 -22 l168 0 0
54 c0 35 -5 58 -15 66 -8 7 -15 16 -15 21 0 5 7 9 15 9 22 0 21 97 -2 122 -15
17 -15 18 0 18 26 0 24 101 -2 124 -19 18 -20 17 -23 -30z"/>
<path d="M3420 382 l0 -52 -115 0 c-108 0 -115 -1 -115 -20 0 -19 7 -20 115
-20 l115 0 0 -50 0 -50 -115 0 c-108 0 -115 -1 -115 -20 0 -19 7 -20 115 -20
l115 0 0 -55 0 -55 -160 0 c-88 0 -160 -4 -160 -8 0 -27 30 -32 192 -32 l168
0 0 54 c0 35 -5 58 -15 66 -8 7 -15 16 -15 21 0 5 7 9 15 9 22 0 21 97 -2 122
-15 17 -15 18 0 18 27 0 24 101 -3 125 -20 18 -20 17 -20 -33z"/>
<path d="M1200 317 c41 -59 75 -105 77 -103 5 5 -125 193 -139 202 -6 4 22
-41 62 -99z"/>
<path d="M1550 356 c0 -56 3 -66 18 -66 14 0 17 8 14 55 -2 30 -10 59 -18 66
-12 10 -14 1 -14 -55z"/>
<path d="M2208 378 l-3 -43 -117 -3 c-110 -2 -118 -4 -118 -22 0 -19 7 -20
135 -20 l135 0 0 54 c0 34 -5 58 -14 65 -12 11 -15 6 -18 -31z"/>
<path d="M368 331 l4 -61 -48 0 c-46 0 -47 0 -29 -20 13 -15 31 -20 67 -20
l48 0 0 54 c0 42 -5 61 -22 81 l-23 26 3 -60z"/>
<path d="M3015 365 c19 -38 19 -68 0 -106 -27 -51 -69 -69 -162 -69 l-82 0 -3
-72 -3 -73 -52 0 -52 0 21 -23 c17 -17 33 -22 69 -22 l48 0 3 73 3 72 91 5
c103 6 137 22 160 76 19 46 10 90 -27 134 -28 34 -29 34 -14 5z"/>
<path d="M798 245 l4 -135 -36 -36 -36 -36 -119 4 c-101 3 -122 6 -142 23 -23
19 -23 18 1 -9 43 -48 69 -56 189 -56 108 0 111 1 143 29 l33 29 0 141 c0 127
-2 142 -20 160 l-20 21 3 -135z"/>
<path d="M3839 363 c16 -33 13 -68 -8 -94 -18 -23 -18 -25 -3 -43 12 -13 18
-41 21 -102 l3 -84 -46 0 c-25 0 -46 -4 -46 -8 0 -20 29 -32 78 -32 l55 0 -5
84 c-3 51 -10 91 -18 101 -12 14 -11 21 4 46 23 38 15 83 -20 124 -17 21 -22
23 -15 8z"/>
<path d="M117 323 c-4 -3 -7 -43 -7 -89 0 -65 3 -83 16 -88 28 -11 29 -7 29
66 l0 73 58 3 c49 3 57 6 57 22 0 18 -7 20 -73 20 -41 0 -77 -3 -80 -7z"/>
<path d="M542 238 c2 -73 6 -93 18 -96 12 -2 15 11 15 70 l0 73 58 3 c49 3 57
6 57 22 0 18 -7 20 -75 20 l-76 0 3 -92z"/>
<path d="M2770 310 c0 -18 7 -20 75 -20 68 0 75 2 75 20 0 18 -7 20 -75 20
-68 0 -75 -2 -75 -20z"/>
<path d="M3590 310 c0 -18 7 -20 74 -20 54 0 75 4 79 14 9 22 -2 26 -80 26
-66 0 -73 -2 -73 -20z"/>
<path d="M2210 236 l0 -46 -120 0 c-112 0 -120 -1 -120 -19 0 -18 9 -20 119
-23 65 -2 126 -2 135 0 22 5 23 104 1 122 -13 11 -15 6 -15 -34z"/>
<path d="M1120 158 l0 -118 -45 0 c-43 0 -44 -1 -33 -20 10 -16 24 -20 65 -20
l52 0 3 111 c3 101 1 112 -19 137 l-22 27 -1 -117z"/>
<path d="M318 203 l52 -4 0 -49 c0 -37 -6 -56 -24 -77 -24 -27 -27 -28 -139
-31 -76 -3 -123 0 -139 8 -21 11 -21 10 5 -16 27 -29 27 -29 158 -29 l131 0
24 28 c19 22 24 40 24 81 0 71 -26 97 -96 94 l-49 -2 53 -3z"/>
<path d="M3588 118 l-3 -73 -52 0 -52 0 21 -23 c17 -17 33 -22 69 -22 l48 0 3
73 3 72 63 0 c63 0 67 2 56 29 -5 13 -22 16 -80 16 l-73 0 -3 -72z"/>
<path d="M2208 88 l-3 -43 -164 -3 c-162 -2 -163 -3 -146 -22 17 -18 32 -20
182 -20 l163 0 0 54 c0 34 -5 58 -14 65 -12 11 -15 6 -18 -31z"/>
</g>
</svg>
